<svg width="89" height="34" viewBox="0 0 89 34" fill="none" xmlns="http://www.w3.org/2000/svg">
<path d="M5 26.6667V15H8.33333V26.6667H5ZM15 26.6667V15H18.3333V26.6667H15ZM0 33.3333V30H33.3333V33.3333H0ZM25 26.6667V15H28.3333V26.6667H25ZM0 11.6667V8.33333L16.6667 0L33.3333 8.33333V11.6667H0Z" fill="#00163C"/>
<path d="M49.4033 25.1345C47.8153 25.1345 46.4763 24.8825 45.3863 24.3785C44.2963 23.8745 43.4703 23.1835 42.9083 22.3055C42.3463 21.4275 42.0653 20.4225 42.0653 19.2905H45.8933C45.8933 19.7345 46.0153 20.1515 46.2593 20.5415C46.5033 20.9315 46.8823 21.2425 47.3963 21.4745C47.9103 21.7065 48.5793 21.8225 49.4033 21.8225C50.1353 21.8225 50.7503 21.7235 51.2483 21.5255C51.7463 21.3275 52.1223 21.0575 52.3763 20.7155C52.6303 20.3735 52.7573 19.9785 52.7573 19.5305C52.7573 18.9665 52.5173 18.5205 52.0373 18.1925C51.5573 17.8645 50.7833 17.6565 49.7153 17.5685L48.3833 17.4545C46.6393 17.3025 45.2493 16.7565 44.2133 15.8165C43.1773 14.8765 42.6593 13.6305 42.6593 12.0785C42.6593 10.9465 42.9253 9.9745 43.4573 9.1625C43.9893 8.3505 44.7373 7.7255 45.7013 7.2875C46.6653 6.8495 47.7993 6.6305 49.1033 6.6305C50.4873 6.6305 51.6703 6.8665 52.6523 7.3385C53.6343 7.8105 54.3883 8.4745 54.9143 9.3305C55.4403 10.1865 55.7033 11.1865 55.7033 12.3305H51.8753C51.8753 11.9025 51.7703 11.5065 51.5603 11.1425C51.3503 10.7785 51.0403 10.4875 50.6303 10.2695C50.2203 10.0515 49.7113 9.9425 49.1033 9.9425C48.5273 9.9425 48.0453 10.0375 47.6573 10.2275C47.2693 10.4175 46.9773 10.6755 46.7813 11.0015C46.5853 11.3275 46.4873 11.6865 46.4873 12.0785C46.4873 12.5745 46.6633 13.0045 47.0153 13.3685C47.3673 13.7325 47.9473 13.9485 48.7553 14.0165L50.0873 14.1305C51.3713 14.2385 52.5003 14.5145 53.4743 14.9585C54.4483 15.4025 55.2103 16.0035 55.7603 16.7615C56.3103 17.5195 56.5853 18.4425 56.5853 19.5305C56.5853 20.6505 56.2943 21.6325 55.7123 22.4765C55.1303 23.3205 54.3043 23.9745 53.2343 24.4385C52.1643 24.9025 50.8873 25.1345 49.4033 25.1345ZM59.3093 24.6665V7.0145H63.2453V24.6665H59.3093ZM69.9353 24.6665L64.7933 17.1365H69.1193L74.5013 24.6665H69.9353ZM62.1773 19.0505V15.9545H66.5033C67.0833 15.9545 67.5833 15.8385 68.0033 15.6065C68.4233 15.3745 68.7503 15.0475 68.9843 14.6255C69.2183 14.2035 69.3353 13.7145 69.3353 13.1585C69.3353 12.5905 69.2183 12.0955 68.9843 11.6735C68.7503 11.2515 68.4233 10.9235 68.0033 10.6895C67.5833 10.4555 67.0833 10.3385 66.5033 10.3385H62.1773V7.0145H66.1973C67.6573 7.0145 68.9213 7.2335 69.9893 7.6715C71.0573 8.1095 71.8793 8.7615 72.4553 9.6275C73.0313 10.4935 73.3193 11.5765 73.3193 12.8765V13.2605C73.3193 14.5605 73.0273 15.6375 72.4433 16.4915C71.8593 17.3455 71.0373 17.9855 69.9773 18.4115C68.9173 18.8375 67.6573 19.0505 66.1973 19.0505H62.1773ZM76.8293 24.6665V7.1465H80.7653V24.6665H76.8293ZM80.2853 17.6225V14.3585L87.0413 14.3525V17.6165L80.2853 17.6225ZM80.2853 10.4105V7.1465H87.3413V10.4105H80.2853Z" fill="#00163C"/>
</svg>
